G04*
G04 #@! TF.GenerationSoftware,Altium Limited,Altium Designer,24.2.2 (26)*
G04*
G04 Layer_Physical_Order=1*
G04 Layer_Color=255*
%FSLAX44Y44*%
%MOMM*%
G71*
G04*
G04 #@! TF.SameCoordinates,8037D507-FDD7-4DB1-ABC2-1B2419E491FE*
G04*
G04*
G04 #@! TF.FilePolarity,Positive*
G04*
G01*
G75*
%ADD14R,1.7000X1.0500*%
%ADD15O,2.2000X1.6000*%
%ADD16O,1.6000X2.2000*%
%ADD29C,0.5000*%
%ADD30C,1.0000*%
%ADD31C,0.3000*%
%ADD32R,4.0640X3.5560*%
%ADD33O,1.4000X1.2000*%
%ADD34O,2.0000X2.2000*%
%ADD35O,3.0000X1.5000*%
%ADD36R,3.0000X1.5000*%
%ADD37O,1.5000X1.1000*%
%ADD38O,2.0000X1.6000*%
%ADD39C,2.0000*%
%ADD40R,2.0000X1.6000*%
%ADD41C,1.2000*%
D14*
X222250Y84570D02*
D03*
Y118070D02*
D03*
X68580Y84570D02*
D03*
Y118070D02*
D03*
X146050Y84570D02*
D03*
Y118070D02*
D03*
D15*
X536650Y666750D02*
D03*
X466650D02*
D03*
D16*
X259080Y39930D02*
D03*
Y109930D02*
D03*
X181610Y39930D02*
D03*
Y109930D02*
D03*
X104140Y39930D02*
D03*
Y109930D02*
D03*
D29*
X57095Y10604D02*
X60079Y7620D01*
X57150Y36599D02*
Y64671D01*
X57095Y10604D02*
Y36544D01*
X60079Y7620D02*
X481330D01*
X57150Y64671D02*
X61319Y68840D01*
X57095Y36544D02*
X57150Y36599D01*
X18819Y84522D02*
X36128D01*
X15890Y87451D02*
X18819Y84522D01*
X15890Y87451D02*
Y201541D01*
X36128Y84522D02*
X36830Y83820D01*
X18819Y204470D02*
X74541D01*
X15890Y201541D02*
X18819Y204470D01*
X222250Y57750D02*
Y72675D01*
X222250D02*
Y84570D01*
Y72675D02*
X256151D01*
X145415Y71120D02*
Y82665D01*
X146050Y83300D01*
X145415Y57750D02*
Y71120D01*
X146685Y69850D02*
X178681D01*
X145415Y71120D02*
X146685Y69850D01*
X145415Y83935D02*
Y87600D01*
Y83935D02*
X146050Y83300D01*
X68580Y71820D02*
Y84570D01*
X68580Y57450D02*
Y68580D01*
X104140Y71509D02*
Y109930D01*
X101211Y68580D02*
X104140Y71509D01*
X68580Y68580D02*
X101211D01*
X65600Y68840D02*
X66960Y70200D01*
X61319Y68840D02*
X65600D01*
X481330Y7620D02*
X487680Y13970D01*
Y99060D01*
X500380Y111760D01*
X519430D01*
X424380Y581860D02*
X427741Y585221D01*
X502920D01*
X424380Y282129D02*
Y581860D01*
Y282129D02*
X428379Y278130D01*
X443230D01*
X328930Y90559D02*
Y148590D01*
X163830Y232410D02*
X245110D01*
X328930Y148590D01*
X234950Y222250D02*
X317500Y139700D01*
Y77859D02*
Y139700D01*
X156210Y222250D02*
X234950D01*
X314079Y575310D02*
X401320D01*
X414020Y230259D02*
Y562610D01*
X401320Y575310D02*
X414020Y562610D01*
X80399Y363220D02*
X232021D01*
X234950Y366149D02*
Y378460D01*
X232021Y363220D02*
X234950Y366149D01*
X68969Y378460D02*
X208280D01*
X66040Y375531D02*
X68969Y378460D01*
X77470Y207399D02*
Y360291D01*
X80399Y363220D01*
X74541Y204470D02*
X77470Y207399D01*
X8890Y63262D02*
X11819Y60333D01*
X34917D01*
X8890Y63262D02*
Y214241D01*
X11819Y217170D02*
X63111D01*
X8890Y214241D02*
X11819Y217170D01*
X66040Y220099D02*
Y375531D01*
X63111Y217170D02*
X66040Y220099D01*
X34917Y60333D02*
X36830Y58420D01*
X262890Y236220D02*
X322580Y176530D01*
X262890Y236220D02*
Y454660D01*
X322580Y176530D02*
X367030D01*
X91440Y287020D02*
X156210Y222250D01*
X91440Y287020D02*
Y350520D01*
X111760Y284480D02*
Y354330D01*
Y284480D02*
X163830Y232410D01*
X499499Y406400D02*
X519430D01*
X496570Y403471D02*
X499499Y406400D01*
X496570Y171450D02*
Y403471D01*
X463550Y138430D02*
X496570Y171450D01*
X240030Y297180D02*
X241116Y298266D01*
X248531D01*
X251460Y301195D01*
Y439031D01*
X233680Y441960D02*
X248531D01*
X251460Y439031D01*
X201930Y431800D02*
Y479671D01*
X206129Y483870D01*
X267581D02*
X278130Y473321D01*
X206129Y483870D02*
X267581D01*
X278130Y241300D02*
Y473321D01*
Y241300D02*
X292100Y227330D01*
X367030D01*
X433070Y668020D02*
X433705Y667385D01*
X466015D01*
X466650Y666750D01*
X311150Y578239D02*
Y704850D01*
X284195Y72675D02*
X330200Y26670D01*
X256151Y72675D02*
X284195D01*
X330200Y26670D02*
X460621D01*
X325120Y16510D02*
X466090D01*
X243840Y57150D02*
X284480D01*
X325120Y16510D01*
X222250Y115600D02*
Y142240D01*
X466090Y16510D02*
X477520Y27940D01*
X495300Y137160D02*
X519430D01*
X477520Y27940D02*
Y119380D01*
X495300Y137160D01*
X463550Y29599D02*
Y138430D01*
X144780Y116235D02*
Y139700D01*
X68580Y115600D02*
Y141851D01*
X102870Y17093D02*
X104140Y18363D01*
X256151Y17093D02*
X259080Y20022D01*
X181610Y18363D02*
Y39930D01*
X219710Y17093D02*
X256151D01*
X68580Y20022D02*
Y31750D01*
X219710Y17093D02*
X222250Y19633D01*
X71509Y17093D02*
X102870D01*
X104140Y18363D02*
Y39930D01*
X222250Y19633D02*
Y31750D01*
X259080Y20022D02*
Y39930D01*
X144780Y17093D02*
X180340D01*
X145415Y17728D02*
Y31750D01*
X180340Y17093D02*
X219710D01*
X102870D02*
X144780D01*
X145415Y17728D01*
X180340Y17093D02*
X181610Y18363D01*
X68580Y20022D02*
X71509Y17093D01*
X231140Y44450D02*
X243840Y57150D01*
X203200Y47379D02*
Y64770D01*
Y47379D02*
X206129Y44450D01*
X231140D01*
X198120Y69850D02*
X203200Y64770D01*
X178681Y69850D02*
X198120D01*
X460621Y26670D02*
X463550Y29599D01*
X320429Y74930D02*
X367030D01*
X317500Y77859D02*
X320429Y74930D01*
X331859Y87630D02*
X345440D01*
X328930Y90559D02*
X331859Y87630D01*
X256151Y72675D02*
X259080Y75604D01*
X281940Y554990D02*
Y684141D01*
X214511Y703905D02*
X214630Y703785D01*
Y692150D02*
Y703785D01*
Y692150D02*
X219710Y687070D01*
X279011D02*
X281940Y684141D01*
X219710Y687070D02*
X279011D01*
X282127Y703309D02*
X292981D01*
X295910Y700381D01*
Y568079D02*
Y700381D01*
X298839Y565150D02*
X397121D01*
X295910Y568079D02*
X298839Y565150D01*
X311150Y578239D02*
X314079Y575310D01*
X281940Y554990D02*
X289560Y547370D01*
X386080Y128659D02*
Y544441D01*
X383151Y547370D02*
X386080Y544441D01*
X289560Y547370D02*
X383151D01*
X367030Y125730D02*
X383151D01*
X386080Y128659D01*
X261844Y501426D02*
X322395D01*
X261620Y501650D02*
X261844Y501426D01*
X322395D02*
X322620Y501201D01*
X416949Y227330D02*
X443230D01*
X414020Y230259D02*
X416949Y227330D01*
X400050Y177354D02*
X402979Y174425D01*
X400050Y177354D02*
Y562221D01*
X397121Y565150D02*
X400050Y562221D01*
X402979Y174425D02*
X441125D01*
X443230Y176530D01*
X408728Y74930D02*
X443230D01*
X408728Y74930D02*
X408728Y74930D01*
X259080Y75604D02*
Y109930D01*
X181610Y72779D02*
Y109930D01*
X178681Y69850D02*
X181610Y72779D01*
D30*
X537210Y35560D02*
X543560Y41910D01*
X541430Y430843D02*
Y657892D01*
X543560Y41910D02*
Y410276D01*
X541430Y412406D02*
X543560Y410276D01*
X541430Y412406D02*
Y430843D01*
X538027Y666750D02*
X540798Y663978D01*
Y658524D02*
Y663978D01*
Y658524D02*
X541430Y657892D01*
X537210Y34290D02*
Y35560D01*
X536650Y666750D02*
X538027D01*
X520387Y430843D02*
X539750D01*
X443230Y509270D02*
X468630D01*
X539750Y666750D02*
Y715502D01*
Y17780D02*
Y34290D01*
X16018Y264160D02*
X36830D01*
X10160Y270018D02*
X16018Y264160D01*
X10160Y270018D02*
Y286631D01*
X327660Y49530D02*
X367030D01*
X468630Y509270D02*
X472440D01*
X538480Y16510D02*
X539750Y17780D01*
X492760Y533400D02*
X539750D01*
X468630Y509270D02*
X492760Y533400D01*
X444378Y253878D02*
X466582D01*
X472440Y259736D01*
Y509270D01*
X16018Y721360D02*
X533892D01*
X539750Y715502D01*
X222250Y142240D02*
X289560D01*
X68969D02*
X222250D01*
X10160Y473710D02*
Y715502D01*
Y286631D02*
Y473710D01*
X178292D01*
X184850Y408450D02*
Y467152D01*
X178292Y473710D02*
X184850Y467152D01*
X443230Y252730D02*
X444378Y253878D01*
X519430Y431800D02*
X520387Y430843D01*
X10160Y715502D02*
X16018Y721360D01*
X297180Y80010D02*
Y134620D01*
Y80010D02*
X327660Y49530D01*
X289560Y142240D02*
X297180Y134620D01*
X13089Y289560D02*
X36830D01*
X10160Y286631D02*
X13089Y289560D01*
X144780Y116235D02*
X145415Y115600D01*
D31*
X345440Y87630D02*
X396028D01*
X408728Y74930D01*
D32*
X524510Y25400D02*
D03*
D33*
X68580Y32050D02*
D03*
Y57450D02*
D03*
X145415Y32050D02*
D03*
Y57450D02*
D03*
X222250Y32050D02*
D03*
Y57450D02*
D03*
D34*
X129540Y535940D02*
D03*
X154940D02*
D03*
X180340D02*
D03*
X129540Y637540D02*
D03*
X154940D02*
D03*
X180340D02*
D03*
X205740Y535940D02*
D03*
X231140D02*
D03*
X256540D02*
D03*
X205740Y637540D02*
D03*
X231140D02*
D03*
X256540D02*
D03*
D35*
X36830Y238760D02*
D03*
Y264160D02*
D03*
Y289560D02*
D03*
Y314960D02*
D03*
Y340360D02*
D03*
Y365760D02*
D03*
Y391160D02*
D03*
X519430Y213360D02*
D03*
Y187960D02*
D03*
Y162560D02*
D03*
Y137160D02*
D03*
Y111760D02*
D03*
Y86360D02*
D03*
Y60960D02*
D03*
X36830Y58420D02*
D03*
Y83820D02*
D03*
Y109220D02*
D03*
Y134620D02*
D03*
Y160020D02*
D03*
X519430Y482600D02*
D03*
Y457200D02*
D03*
Y431800D02*
D03*
Y406400D02*
D03*
Y381000D02*
D03*
Y355600D02*
D03*
Y330200D02*
D03*
Y304800D02*
D03*
Y279400D02*
D03*
D36*
X36830Y416560D02*
D03*
X519430Y238760D02*
D03*
X36830Y185420D02*
D03*
X519430Y508000D02*
D03*
D37*
X502920Y571082D02*
D03*
Y585221D02*
D03*
Y599360D02*
D03*
Y613500D02*
D03*
D38*
X367030Y483870D02*
D03*
Y458470D02*
D03*
Y433070D02*
D03*
X443230Y356870D02*
D03*
Y382270D02*
D03*
Y407670D02*
D03*
Y433070D02*
D03*
Y458470D02*
D03*
Y483870D02*
D03*
X367030Y331470D02*
D03*
Y356870D02*
D03*
Y382270D02*
D03*
Y407670D02*
D03*
X443230Y509270D02*
D03*
X367030D02*
D03*
X443230Y49530D02*
D03*
Y74930D02*
D03*
X367030Y49530D02*
D03*
Y252730D02*
D03*
Y227330D02*
D03*
Y201930D02*
D03*
Y176530D02*
D03*
Y151130D02*
D03*
Y125730D02*
D03*
X443230Y278130D02*
D03*
Y252730D02*
D03*
Y227330D02*
D03*
Y201930D02*
D03*
Y176530D02*
D03*
Y151130D02*
D03*
Y125730D02*
D03*
X367030Y100330D02*
D03*
X443230D02*
D03*
X367030Y74930D02*
D03*
D39*
X160020Y406400D02*
D03*
X185420D02*
D03*
X210820D02*
D03*
X236220D02*
D03*
D40*
X443230Y331470D02*
D03*
X367030Y278130D02*
D03*
D41*
X208280Y378460D02*
D03*
X234950D02*
D03*
X91440Y351790D02*
D03*
X111760D02*
D03*
X537210Y16510D02*
D03*
X514350D02*
D03*
Y34290D02*
D03*
X537210D02*
D03*
X240030Y297180D02*
D03*
X233680Y441960D02*
D03*
X201930Y431800D02*
D03*
X311150Y704850D02*
D03*
X433070Y668020D02*
D03*
X214511Y703905D02*
D03*
X261620Y462280D02*
D03*
X322620Y501201D02*
D03*
X261620Y501650D02*
D03*
X282127Y703309D02*
D03*
M02*
