M48
;Layer_Color=9474304
;FILE_FORMAT=4:4
METRIC,LZ
;TYPE=PLATED
T01F00S00C0.6000
T02F00S00C0.7000
T03F00S00C0.8000
T04F00S00C0.9000
T05F00S00C1.0000
T06F00S00C1.2000
%
T01
X0051435Y0001651
X0053721
Y0003429
X0051435
X0024003Y0029718
X0023495Y0037846
X0020828
X0011176Y0035179
X0009144
X0020193Y004318
X0023368Y0044196
X0026162Y0046228
Y0050165
X0032262Y00501201
X0031115Y0070485
X00282127Y00703309
X00214511Y00703905
X0043307Y0066802
T02
X00145415Y0003205
Y0005745
X0022225
Y0003205
X0006858
Y0005745
T03
X0012954Y0053594
X0015494
X0018034
X0020574
X0023114
X0025654
Y0063754
X0023114
X0020574
X0018034
X0015494
X0012954
X0050292Y006135
Y0059936
Y00585221
Y00571082
T04
X0036703Y0004953
Y0007493
Y0010033
Y0012573
Y0015113
Y0017653
Y0020193
Y0022733
Y0025273
Y0027813
Y0033147
Y0035687
Y0038227
Y0040767
X0044323Y0040767
Y0038227
Y0035687
Y0033147
Y0027813
Y0025273
Y0022733
Y0020193
Y0017653
Y0015113
Y0012573
Y0010033
Y0007493
Y0004953
Y0043307
Y0045847
Y0048387
Y0050927
X0036703
Y0048387
Y0045847
Y0043307
T05
X0051943Y0006096
Y0008636
Y0011176
Y0013716
Y0016256
Y0018796
Y0021336
Y0023876
Y002794
Y003048
Y003302
Y003556
Y00381
Y004064
X0003683Y0041656
Y0039116
Y0036576
Y0034036
Y0031496
Y0028956
Y0026416
Y0023876
Y0018542
Y0016002
Y0013462
Y0010922
Y0008382
Y0005842
X0051943Y004318
Y004572
Y004826
Y00508
T06
X0016002Y004064
X0018542
X0021082
X0023622
M30
